<svg width="130" height="40" viewBox="0 0 130 40" fill="none" xmlns="http://www.w3.org/2000/svg">
<path d="M91.3929 6.67256L83.2697 32.6843H78.8675L73.155 14.9093C72.9716 14.3852 72.8319 13.8524 72.7183 13.3109C72.6484 13.6079 72.5698 13.8961 72.5087 14.1581C72.4388 14.4114 72.3602 14.656 72.2728 14.8919L66.508 32.6668H62.097L54 6.6551H58.0703C58.4547 6.63763 58.8302 6.74244 59.1447 6.96081C59.4329 7.14424 59.6338 7.42374 59.7212 7.74693L64.1758 23.3033C64.2719 23.6876 64.3593 24.1069 64.4466 24.5611C64.5252 25.0153 64.6388 25.4695 64.7349 25.9674C64.8309 25.4695 64.9358 24.9891 65.0406 24.5436C65.1629 24.0981 65.2851 23.6876 65.4249 23.3033L70.5521 7.74693C70.6569 7.44995 70.8491 7.18791 71.0937 6.98701C71.3994 6.75118 71.7837 6.62889 72.168 6.64636H73.5743C73.9412 6.62889 74.308 6.73371 74.605 6.95207C74.867 7.1617 75.0679 7.44121 75.1815 7.75566L80.3 23.312C80.5795 24.1593 80.8153 25.0153 80.99 25.8887C81.1472 24.9367 81.3219 24.0807 81.5315 23.312L85.9775 7.75566C86.0561 7.44121 86.2482 7.17044 86.519 6.97827C86.8335 6.75991 87.2091 6.64636 87.5934 6.6551H91.4017V6.67256H91.3929ZM98.3544 14.228V32.6843H93.8736V14.228H98.3544ZM98.9659 8.84748C98.9659 9.21434 98.8873 9.58119 98.73 9.91311C98.5815 10.245 98.3632 10.5507 98.0924 10.7953C97.8391 11.0573 97.5421 11.267 97.2102 11.4155C96.8521 11.564 96.4678 11.6338 96.0834 11.6251C95.7166 11.6251 95.341 11.564 95.0003 11.4155C94.6597 11.2757 94.354 11.0661 94.0919 10.7953C93.8212 10.542 93.6028 10.245 93.4368 9.91311C93.2971 9.57246 93.2185 9.21434 93.2272 8.84748C93.2272 8.46316 93.2971 8.08757 93.4368 7.72945C93.5853 7.39754 93.795 7.09183 94.0483 6.82979C94.3016 6.57648 94.5986 6.37559 94.9392 6.23583C95.2886 6.07861 95.6642 6 96.0485 6C96.4328 6 96.8084 6.07861 97.1665 6.23583C97.4985 6.37559 97.8129 6.57648 98.0662 6.82979C98.337 7.08309 98.5553 7.3888 98.7038 7.72945C98.8611 8.0701 98.9484 8.44569 98.9571 8.83002L98.9659 8.84748ZM121.693 10.6468H113.806V32.6843H108.941V10.6468H101.053V6.67256H121.685V10.6468H121.693ZM130 32.6843H125.117V6.67256H130V32.6843Z" fill="white"/>
<mask id="mask0_1142_5458" style="mask-type:luminance" maskUnits="userSpaceOnUse" x="0" y="0" width="51" height="40">
<path d="M50.1665 0H0V39.0714H50.1665V0Z" fill="white"/>
</mask>
<g mask="url(#mask0_1142_5458)">
<path d="M33.9109 17.6699L36.27 20.0946C27.6609 25.1323 15.2878 26.9093 8.49504 23.0796C3.40048 20.2216 3.76813 15.3458 8.02673 10.9297C-1.02881 17.1316 -3.20406 25.9683 5.56698 31.0366C15.5723 36.7745 32.6154 33.8333 42.183 26.174L45.6013 29.6885L47.8816 21.6221L50.1619 13.5557L33.9066 17.6699H33.9109Z" fill="#EE721C"/>
<path d="M42.0513 27.9805C35.7881 32.5761 26.8639 35.3991 18.4386 35.3991C16.6966 35.3991 15.016 35.2765 13.4141 35.0314C16.7098 37.5612 20.8327 39.0712 25.3101 39.0712C32.8382 39.0712 39.3683 34.8126 42.6334 28.5757L42.0556 27.9805H42.0513Z" fill="#14438F"/>
<path d="M5.80273 18.4568C6.1485 19.8049 7.49654 20.9647 9.15534 21.897C11.3525 23.1356 14.3593 23.7921 17.8564 23.7921C23.1829 23.7921 29.1134 22.304 34.0548 19.7655L32.9387 18.6188L31.3018 16.9337L33.5777 16.356L43.9638 13.7299C41.4909 5.77296 34.0723 0 25.3056 0C14.8802 0 6.36296 8.16705 5.80273 18.4568Z" fill="#0267AB"/>
<path d="M14.8846 16.7275C14.8846 16.2504 14.4994 15.8652 14.0224 15.8652C13.5453 15.8652 13.1602 16.2504 13.1602 16.7275C13.1602 17.2045 13.5103 17.5503 13.9524 17.5853L17.4538 23.7872H17.817L14.7314 17.2133C14.8277 17.0732 14.8802 16.9069 14.8802 16.7275H14.8846Z" fill="white"/>
<path d="M19.5428 9.59855C19.5428 9.12148 19.1577 8.73633 18.6806 8.73633C18.2035 8.73633 17.8184 9.12148 17.8184 9.59855C17.8184 9.99684 18.0897 10.3338 18.4574 10.4301L22.5978 23.4248L22.8998 23.3766L19.3152 10.1807C19.4596 10.0275 19.5472 9.82177 19.5472 9.59418L19.5428 9.59855Z" fill="white"/>
<path d="M32.8564 11.0902L31.9636 5.67177C32.1168 5.5142 32.213 5.29974 32.213 5.06339C32.213 4.58633 31.8279 4.20117 31.3508 4.20117C30.8738 4.20117 30.4886 4.58633 30.4886 5.06339C30.4886 5.40478 30.6856 5.69803 30.9744 5.83808L31.8498 10.3374L25.6348 11.8343L27.7444 22.2772L28.0157 22.1941L26.4707 12.3682L32.8608 11.0858L32.8564 11.0902Z" fill="white"/>
</g>
</svg>
